<svg xmlns="http://www.w3.org/2000/svg" viewBox="0 0 135 135"><defs><style>.cls-1{fill:#010201;}.cls-2{fill:#fff;}.cls-3{fill:#cb1c54;}.cls-4{fill:#6abac5;}</style></defs><g id="Calque_2" data-name="Calque 2"><g id="Graphic_Elements" data-name="Graphic Elements"><circle class="cls-1" cx="67.5" cy="67.5" r="67.5"/><path class="cls-2" d="M49.48,94.59l.25.22c.74.54,1.29,1.29,2,1.86a13,13,0,0,0,7.58,2.93A12.86,12.86,0,0,0,72.77,88.21c0-.33,0-.66,0-1V26.65c0-1.37,0-1.37,1.36-1.37h9.2a1.42,1.42,0,0,1,.86.12l.05.05a1,1,0,0,1,.23.54A21.21,21.21,0,0,0,93,39.06c.28.21.51.47.78.68l.59.5a13.43,13.43,0,0,1,1.86,1.6,21.22,21.22,0,0,0,8.42,4.3c.27.07.59.07.79.33a.1.1,0,0,0,0,0,.91.91,0,0,1,.15.68q0,5.34,0,10.68c0,.81-.11.85-.93.85a33.79,33.79,0,0,1-7.7-.93,36.73,36.73,0,0,1-12.11-5.21c-.2-.13-.4-.4-.61-.31s-.12.46-.12.7c0,10,0,20,0,30.07a28.67,28.67,0,0,1-25.35,28.48,28.36,28.36,0,0,1-16.32-2.88,14.61,14.61,0,0,1-2.38-1.46l-.7-.62a19.38,19.38,0,0,1-4.17-5.32,27.39,27.39,0,0,1-3.49-9.68,26.9,26.9,0,0,1-.38-5.94A28.67,28.67,0,0,1,51,59.73a25.9,25.9,0,0,1,6.59-1.34,8.78,8.78,0,0,1,1.25-.1.91.91,0,0,1,.58.13l.06,0a1.18,1.18,0,0,1,.09.64V69.94c0,.13,0,.25,0,.38q0,.54-.54.39a14.16,14.16,0,0,0-3-.47,11.7,11.7,0,0,0-4.62.69c-5,1.83-8,5.39-8.61,10.63s1.41,9.29,5.71,12.27C48.78,94.08,49.15,94.31,49.48,94.59Z"/><path class="cls-3" d="M40.13,107.18c.19-.05.3.1.44.19A28.57,28.57,0,0,0,51,111.22a27,27,0,0,0,5.68.33,28.55,28.55,0,0,0,26.4-21.29A27.56,27.56,0,0,0,84,84.54c.06-1.11.05-2.22.05-3.34q0-14.33,0-28.65V51.9c.24-.07.36.12.49.21a36.72,36.72,0,0,0,11.06,5.15,37.67,37.67,0,0,0,6.66,1.2c1,.08,1.9.07,2.84.14.42,0,.42,0,.43-.42V47.11c0-.2,0-.4,0-.6.85.1,1.69.28,2.55.35.53,0,1.05.08,1.58.07.26,0,.37.08.35.34a1.82,1.82,0,0,0,0,.33v14a2.43,2.43,0,0,1,0,.27c0,.41,0,.42-.44.42a33.65,33.65,0,0,1-4.37-.3,36.76,36.76,0,0,1-8.62-2.2,37.15,37.15,0,0,1-7.53-4l-.52-.34v.66q0,15.32,0,30.62A28.46,28.46,0,0,1,58,115.21a28.23,28.23,0,0,1-17.51-7.63C40.37,107.46,40.26,107.32,40.13,107.18Z"/><path class="cls-4" d="M84.21,25.41c-.2,0-.4,0-.6,0H73.74c-.76,0-.76,0-.76.74V86.44a12.88,12.88,0,0,1-.54,4.1,12.51,12.51,0,0,1-9.51,8.9c-5.17,1.18-9.56-.39-13.06-4.4a1.76,1.76,0,0,1-.14-.23,17.14,17.14,0,0,0,3.06,1A13.06,13.06,0,0,0,68.32,85.14a11.84,11.84,0,0,0,.16-2.23q0-30.19,0-60.38c0-.93-.13-.82.8-.82H83.53c.48,0,.48,0,.48.49A15.66,15.66,0,0,0,84.21,25.41Z"/><path class="cls-4" d="M59.37,58.42a29,29,0,0,0-8.31,1.44A28.52,28.52,0,0,0,32.56,79.2a27.05,27.05,0,0,0-1,5.65,28.3,28.3,0,0,0,7.71,21.53,1.18,1.18,0,0,1,.13.18,6.84,6.84,0,0,1-1.48-1,28.29,28.29,0,0,1-9.63-13.86,27.78,27.78,0,0,1-1.2-6,27.32,27.32,0,0,1-.06-4.43A28.5,28.5,0,0,1,45.8,56.39,29,29,0,0,1,59,54.92c.25,0,.4.08.39.38C59.37,56.34,59.37,57.38,59.37,58.42Z"/><path class="cls-3" d="M49.48,94.59a10.63,10.63,0,0,1-3-2.12,12.6,12.6,0,0,1-3.94-7.92,13,13,0,0,1,16.41-14,.76.76,0,0,0,.42.06,1.36,1.36,0,0,0,0-.6v-11c0-.2,0-.4,0-.6a22.65,22.65,0,0,1,4.2.19c.22,0,.28.12.28.32s0,.21,0,.32q0,7.26,0,14.52a1,1,0,0,1-.06.55c-.64-.12-1.27-.31-1.91-.4a12.8,12.8,0,0,0-10.07,2.68,12.51,12.51,0,0,0-4.74,8,12.72,12.72,0,0,0,2.13,9.57A3.73,3.73,0,0,1,49.48,94.59Z"/><path class="cls-3" d="M93.81,39.74A17.88,17.88,0,0,1,90,36.69a21.36,21.36,0,0,1-5.78-11.13v-.1c1.31-.08,2.63,0,3.94,0,.23,0,.33.09.31.32a2.62,2.62,0,0,0,0,.28,19.69,19.69,0,0,0,2.82,10.2,21.11,21.11,0,0,0,2.24,3.17C93.66,39.5,93.79,39.58,93.81,39.74Z"/><path class="cls-4" d="M105.47,46.47a21.41,21.41,0,0,1-9.89-5,7.44,7.44,0,0,1-1.18-1.2.63.63,0,0,1,.35.13A21.6,21.6,0,0,0,102,43a18.29,18.29,0,0,0,3,.26c.42,0,.43,0,.43.42C105.49,44.58,105.48,45.52,105.47,46.47Z"/></g></g></svg>